<svg width="803" height="107" viewBox="0 0 803 107" fill="none" xmlns="http://www.w3.org/2000/svg">
<path d="M61.82 104H29.42V23.9H0.44V1.40002H90.8V23.9H61.82V104ZM100.264 1.40002H174.964V23H132.664V41.72H168.304V61.16H132.664V82.04H174.784V104H100.264V1.40002ZM218.223 29.12C218.223 31.64 219.483 33.62 222.003 35.06C224.643 36.5 228.723 38.06 234.243 39.74C240.843 41.9 246.243 44 250.443 46.04C254.763 48.08 258.483 51.26 261.603 55.58C264.843 59.9 266.463 65.54 266.463 72.5C266.463 94.82 251.943 105.98 222.903 105.98C218.103 105.98 212.223 105.56 205.263 104.72C198.423 103.88 192.183 102.8 186.543 101.48C186.783 98.96 187.263 95.3 187.983 90.5C188.823 85.58 189.603 81.92 190.323 79.52C194.523 80.12 200.823 80.84 209.223 81.68C217.743 82.52 224.163 82.94 228.483 82.94C231.003 82.94 232.503 82.76 232.983 82.4C233.703 81.92 234.243 81.14 234.603 80.06C235.083 78.86 235.323 77.84 235.323 77C235.323 74.6 234.183 72.8 231.903 71.6C229.623 70.28 225.723 68.72 220.203 66.92C213.603 64.88 208.143 62.78 203.823 60.62C199.503 58.46 195.723 55.1 192.483 50.54C189.243 45.98 187.623 39.98 187.623 32.54C187.623 27.26 188.823 22.1 191.223 17.06C193.623 11.9 196.083 8.42003 198.603 6.62003C200.523 5.30002 204.483 4.04002 210.483 2.84002C216.483 1.64003 222.123 1.04003 227.403 1.04003C240.843 1.04003 251.823 2.30003 260.343 4.82003C260.223 7.22003 259.803 10.52 259.083 14.72C258.483 18.92 257.823 22.76 257.103 26.24L252.963 26.06C237.363 24.98 227.403 24.44 223.083 24.44C221.283 24.44 220.263 24.5 220.023 24.62C219.543 24.86 219.123 25.4 218.763 26.24C218.403 27.08 218.223 28.04 218.223 29.12ZM333.05 104H300.65V23.9H271.67V1.40002H362.03V23.9H333.05V104ZM438.995 49.82C447.155 50.78 452.975 53.54 456.455 58.1C459.935 62.54 461.675 67.94 461.675 74.3C461.675 78.26 461.075 82.04 459.875 85.64C458.675 89.12 457.235 92.12 455.555 94.64C453.875 97.04 452.435 98.6 451.235 99.32C446.435 102.44 431.795 104 407.315 104H372.395V1.40002H414.695C424.295 1.40002 432.035 1.94002 437.915 3.02002C443.915 3.98002 448.775 6.26003 452.495 9.86003C456.215 13.34 458.075 18.68 458.075 25.88C458.075 32.12 456.515 37.16 453.395 41C450.395 44.84 445.595 47.48 438.995 48.92V49.82ZM424.595 23.18C423.395 21.98 421.955 21.26 420.275 21.02C418.715 20.66 416.195 20.48 412.715 20.48C409.235 20.48 406.595 20.54 404.795 20.66V42.62H406.595C407.195 42.62 409.715 42.62 414.155 42.62C418.595 42.62 421.535 42.32 422.975 41.72C424.055 41.24 425.015 39.98 425.855 37.94C426.815 35.9 427.295 33.68 427.295 31.28C427.295 27.68 426.395 24.98 424.595 23.18ZM427.655 83.3C428.495 82.58 429.155 81.26 429.635 79.34C430.235 77.3 430.535 75.26 430.535 73.22C430.535 70.7 430.175 68.36 429.455 66.2C428.855 63.92 428.015 62.3 426.935 61.34C425.855 60.26 424.295 59.54 422.255 59.18C420.335 58.82 417.035 58.64 412.355 58.64C409.355 58.64 406.835 58.7 404.795 58.82V84.92C410.435 85.04 415.475 84.98 419.915 84.74C424.355 84.38 426.935 83.9 427.655 83.3ZM525.267 106.34C507.387 106.34 493.947 102.14 484.947 93.74C476.067 85.22 471.627 71.6 471.627 52.88C471.627 34.52 476.547 21.14 486.387 12.74C496.227 4.34003 509.247 0.140027 525.447 0.140027C559.527 0.140027 576.567 17.12 576.567 51.08C576.567 68.24 572.367 81.74 563.967 91.58C555.687 101.42 542.787 106.34 525.267 106.34ZM524.547 85.1C527.907 85.1 530.727 84.56 533.007 83.48C535.287 82.28 537.087 80.24 538.407 77.36C540.927 72.44 542.187 64.4 542.187 53.24C542.187 42.32 540.927 34.4 538.407 29.48C535.887 24.44 531.267 21.8 524.547 21.56C522.027 21.56 519.387 21.86 516.627 22.46C513.987 22.94 512.307 23.66 511.587 24.62C510.147 26.3 509.007 29.9 508.167 35.42C507.447 40.82 507.087 46.76 507.087 53.24C507.087 63.32 508.047 70.7 509.967 75.38C511.287 78.86 513.147 81.38 515.547 82.94C517.947 84.38 520.947 85.1 524.547 85.1ZM640.931 106.34C623.051 106.34 609.611 102.14 600.611 93.74C591.731 85.22 587.291 71.6 587.291 52.88C587.291 34.52 592.211 21.14 602.051 12.74C611.891 4.34003 624.911 0.140027 641.111 0.140027C675.191 0.140027 692.231 17.12 692.231 51.08C692.231 68.24 688.031 81.74 679.631 91.58C671.351 101.42 658.451 106.34 640.931 106.34ZM640.211 85.1C643.571 85.1 646.391 84.56 648.671 83.48C650.951 82.28 652.751 80.24 654.071 77.36C656.591 72.44 657.851 64.4 657.851 53.24C657.851 42.32 656.591 34.4 654.071 29.48C651.551 24.44 646.931 21.8 640.211 21.56C637.691 21.56 635.051 21.86 632.291 22.46C629.651 22.94 627.971 23.66 627.251 24.62C625.811 26.3 624.671 29.9 623.831 35.42C623.111 40.82 622.751 46.76 622.751 53.24C622.751 63.32 623.711 70.7 625.631 75.38C626.951 78.86 628.811 81.38 631.211 82.94C633.611 84.38 636.611 85.1 640.211 85.1ZM802.315 104H766.855L746.875 65.66C746.515 65.06 745.555 63.38 743.995 60.62C742.555 57.86 740.935 55.22 739.135 52.7V104H706.735V1.40002H739.135V48.02C741.175 45.74 742.915 43.28 744.355 40.64C745.915 37.88 746.815 36.26 747.055 35.78L766.315 1.40002H800.515L779.995 35.78C779.635 36.26 778.855 37.52 777.655 39.56C776.455 41.6 775.135 43.52 773.695 45.32C772.375 47 770.935 48.56 769.375 50C771.535 52.04 773.275 54.08 774.595 56.12C776.035 58.04 777.655 60.62 779.455 63.86L802.315 104Z" fill="#FBFBFB"/>
</svg>
